<svg xmlns="http://www.w3.org/2000/svg" xmlns:xlink="http://www.w3.org/1999/xlink" width="500" zoomAndPan="magnify" viewBox="0 0 375 374.999991" height="500" preserveAspectRatio="xMidYMid meet" version="1.0"><defs><g/><clipPath id="5d9c966d63"><path d="M 116 176 L 258 176 L 258 262.191406 L 116 262.191406 Z M 116 176 " clip-rule="nonzero"/></clipPath><clipPath id="da441e9e0c"><path d="M 112.5 112.5 L 262.5 112.5 L 262.5 161 L 112.5 161 Z M 112.5 112.5 " clip-rule="nonzero"/></clipPath></defs><rect x="-37.5" width="450" fill="#ffffff" y="-37.499999" height="449.999989" fill-opacity="1"/><rect x="-37.5" width="450" fill="#ffffff" y="-37.499999" height="449.999989" fill-opacity="1"/><path fill="#100f0d" d="M 164.355469 191.796875 C 164.382812 185.40625 159.214844 180.199219 152.835938 180.1875 C 146.445312 180.160156 141.238281 185.328125 141.210938 191.71875 C 141.210938 191.746094 141.210938 191.773438 141.210938 191.796875 C 141.199219 198.191406 146.351562 203.382812 152.742188 203.410156 C 159.136719 203.4375 164.34375 198.269531 164.355469 191.878906 C 164.355469 191.851562 164.355469 191.824219 164.355469 191.796875 " fill-opacity="1" fill-rule="nonzero"/><g clip-path="url(#5d9c966d63)"><path fill="#100f0d" d="M 246.226562 262.191406 L 246.226562 241.535156 L 127.960938 241.535156 L 127.960938 262.191406 L 116.734375 262.191406 L 116.734375 182.355469 C 116.734375 179.253906 119.25 176.75 122.355469 176.75 C 125.445312 176.75 127.960938 179.253906 127.960938 182.355469 L 127.960938 230.3125 L 257.453125 230.3125 L 257.453125 262.191406 L 246.226562 262.191406 " fill-opacity="1" fill-rule="nonzero"/></g><path fill="#100f0d" d="M 169.308594 185.074219 L 169.308594 206.3125 L 148.070312 206.3125 C 144.964844 206.339844 142.460938 208.855469 142.488281 211.960938 C 142.503906 215.035156 144.992188 217.527344 148.070312 217.539062 L 173.652344 217.539062 C 177.445312 217.539062 180.535156 214.464844 180.535156 210.65625 L 180.535156 185.074219 C 180.535156 181.972656 178.019531 179.453125 174.914062 179.453125 C 171.824219 179.453125 169.308594 181.972656 169.308594 185.074219 " fill-opacity="1" fill-rule="nonzero"/><path fill="#100f0d" d="M 224.28125 191.746094 L 185.941406 191.746094 L 185.941406 217.539062 L 238.050781 217.539062 L 238.050781 205.515625 C 238.050781 197.910156 231.882812 191.746094 224.28125 191.746094 " fill-opacity="1" fill-rule="nonzero"/><g clip-path="url(#da441e9e0c)"><path fill="#100f0d" d="M 112.5 150.542969 L 117.558594 160.570312 L 187.5 125.226562 L 257.441406 160.570312 L 262.5 150.542969 L 187.5 112.65625 L 112.5 150.542969 " fill-opacity="1" fill-rule="nonzero"/></g><g fill="#000000" fill-opacity="1"><g transform="translate(118.970492, 139.577255)"><g><path d="M -2.15625 -14.65625 L -5.84375 -12.75 L -6.828125 -14.671875 L 2.75 -19.609375 L 3.734375 -17.6875 L 0.015625 -15.765625 L 6.4375 -3.3125 L 4.265625 -2.203125 Z M -2.15625 -14.65625 "/></g></g></g><g fill="#000000" fill-opacity="1"><g transform="translate(129.70521, 134.046253)"><g><path d="M -5.921875 -15.140625 L -3.859375 -16.203125 L -1.078125 -10.796875 L -0.3125 -9.09375 C -0.34375 -9.769531 -0.179688 -10.425781 0.171875 -11.0625 C 0.535156 -11.695312 1.082031 -12.207031 1.8125 -12.59375 C 2.738281 -13.0625 3.546875 -13.234375 4.234375 -13.109375 C 4.929688 -12.984375 5.546875 -12.617188 6.078125 -12.015625 C 6.609375 -11.410156 7.160156 -10.550781 7.734375 -9.4375 L 9.953125 -5.125 L 7.859375 -4.046875 L 5.625 -8.390625 C 5.238281 -9.140625 4.890625 -9.707031 4.578125 -10.09375 C 4.273438 -10.488281 3.9375 -10.734375 3.5625 -10.828125 C 3.195312 -10.921875 2.773438 -10.84375 2.296875 -10.59375 C 1.898438 -10.382812 1.5625 -10.054688 1.28125 -9.609375 C 1.007812 -9.171875 0.859375 -8.660156 0.828125 -8.078125 C 0.804688 -7.492188 0.953125 -6.894531 1.265625 -6.28125 L 3.5625 -1.828125 L 1.484375 -0.765625 Z M -5.921875 -15.140625 "/></g></g></g><g fill="#000000" fill-opacity="1"><g transform="translate(140.94831, 128.25331)"><g><path d="M -3.078125 -9.765625 L -0.890625 -10.890625 L 3.734375 -1.921875 L 1.546875 -0.796875 Z M -2.859375 -12.015625 C -3.265625 -11.796875 -3.675781 -11.75 -4.09375 -11.875 C -4.507812 -12.007812 -4.820312 -12.28125 -5.03125 -12.6875 C -5.226562 -13.0625 -5.253906 -13.445312 -5.109375 -13.84375 C -4.960938 -14.25 -4.6875 -14.5625 -4.28125 -14.78125 C -3.894531 -14.976562 -3.5 -15.015625 -3.09375 -14.890625 C -2.6875 -14.773438 -2.382812 -14.53125 -2.1875 -14.15625 C -1.976562 -13.75 -1.9375 -13.34375 -2.0625 -12.9375 C -2.1875 -12.53125 -2.453125 -12.222656 -2.859375 -12.015625 Z M -2.859375 -12.015625 "/></g></g></g><g fill="#000000" fill-opacity="1"><g transform="translate(146.227682, 125.533144)"><g><path d="M 5.734375 -2.71875 C 4.660156 -2.164062 3.65625 -1.910156 2.71875 -1.953125 C 1.789062 -2.003906 0.972656 -2.296875 0.265625 -2.828125 C -0.441406 -3.367188 -1.007812 -4.0625 -1.4375 -4.90625 C -1.9375 -5.863281 -2.171875 -6.804688 -2.140625 -7.734375 C -2.109375 -8.660156 -1.835938 -9.492188 -1.328125 -10.234375 C -0.828125 -10.972656 -0.132812 -11.570312 0.75 -12.03125 C 2.125 -12.75 3.34375 -12.898438 4.40625 -12.484375 C 5.476562 -12.066406 6.367188 -11.164062 7.078125 -9.78125 C 7.265625 -9.425781 7.4375 -9.050781 7.59375 -8.65625 L 1.125 -5.328125 C 1.695312 -4.617188 2.285156 -4.191406 2.890625 -4.046875 C 3.492188 -3.910156 4.171875 -4.039062 4.921875 -4.4375 C 5.546875 -4.75 6.03125 -5.0625 6.375 -5.375 C 6.726562 -5.695312 7.023438 -6.035156 7.265625 -6.390625 L 8.703125 -5.21875 C 8.472656 -4.84375 8.113281 -4.429688 7.625 -3.984375 C 7.144531 -3.546875 6.515625 -3.125 5.734375 -2.71875 Z M 4.84375 -9.09375 C 4.4375 -9.914062 3.960938 -10.398438 3.421875 -10.546875 C 2.890625 -10.691406 2.285156 -10.585938 1.609375 -10.234375 C 0.242188 -9.535156 -0.164062 -8.390625 0.375 -6.796875 Z M 4.84375 -9.09375 "/></g></g></g><g fill="#000000" fill-opacity="1"><g transform="translate(156.629993, 120.173413)"><g><path d="M -3.234375 -9.6875 L -1.171875 -10.75 L -0.296875 -9.125 C -0.335938 -9.800781 -0.179688 -10.453125 0.171875 -11.078125 C 0.523438 -11.703125 1.0625 -12.195312 1.78125 -12.5625 C 2.707031 -13.039062 3.515625 -13.21875 4.203125 -13.09375 C 4.898438 -12.96875 5.515625 -12.601562 6.046875 -12 C 6.578125 -11.394531 7.128906 -10.535156 7.703125 -9.421875 L 9.921875 -5.109375 L 7.8125 -4.015625 L 5.609375 -8.28125 C 5.035156 -9.40625 4.503906 -10.160156 4.015625 -10.546875 C 3.535156 -10.941406 2.945312 -10.960938 2.25 -10.609375 C 1.863281 -10.410156 1.53125 -10.085938 1.25 -9.640625 C 0.96875 -9.191406 0.8125 -8.664062 0.78125 -8.0625 C 0.75 -7.46875 0.890625 -6.863281 1.203125 -6.25 L 3.5 -1.796875 L 1.390625 -0.71875 Z M -3.234375 -9.6875 "/></g></g></g><g fill="#000000" fill-opacity="1"><g transform="translate(201.86969, 112.444923)"><g><path d="M 8.765625 -13.671875 L 10.984375 -12.5625 L 8.015625 -6.671875 L 13.109375 -4.109375 L 16.078125 -10 L 18.265625 -8.90625 L 11 5.53125 L 8.8125 4.4375 L 12.1875 -2.265625 L 7.09375 -4.828125 L 3.71875 1.875 L 1.5 0.765625 Z M 8.765625 -13.671875 "/></g></g></g><g fill="#000000" fill-opacity="1"><g transform="translate(214.384047, 118.74676)"><g><path d="M 4.421875 2.484375 C 3.179688 1.847656 2.507812 1.039062 2.40625 0.0625 C 2.3125 -0.90625 2.59375 -2.039062 3.25 -3.34375 L 5.796875 -8.390625 L 7.921875 -7.3125 L 5.640625 -2.796875 C 5.265625 -2.046875 5.015625 -1.441406 4.890625 -0.984375 C 4.765625 -0.535156 4.78125 -0.148438 4.9375 0.171875 C 5.09375 0.503906 5.425781 0.796875 5.9375 1.046875 C 6.3125 1.234375 6.71875 1.304688 7.15625 1.265625 C 7.601562 1.234375 8.023438 1.085938 8.421875 0.828125 C 8.816406 0.578125 9.125 0.238281 9.34375 -0.1875 L 11.921875 -5.296875 L 14.03125 -4.234375 L 9.484375 4.78125 L 7.765625 3.90625 L 8.171875 2.46875 C 7.597656 2.820312 7 3 6.375 3 C 5.757812 3 5.109375 2.828125 4.421875 2.484375 Z M 4.421875 2.484375 "/></g></g></g><g fill="#000000" fill-opacity="1"><g transform="translate(225.307093, 124.247263)"><g><path d="M 5.5 3.015625 C 4.570312 2.546875 3.847656 1.921875 3.328125 1.140625 C 2.816406 0.359375 2.546875 -0.488281 2.515625 -1.40625 C 2.492188 -2.320312 2.703125 -3.21875 3.140625 -4.09375 C 3.578125 -4.957031 4.171875 -5.65625 4.921875 -6.1875 C 5.679688 -6.71875 6.523438 -7.007812 7.453125 -7.0625 C 8.378906 -7.113281 9.3125 -6.90625 10.25 -6.4375 C 11.195312 -5.957031 11.921875 -5.328125 12.421875 -4.546875 C 12.929688 -3.773438 13.195312 -2.929688 13.21875 -2.015625 C 13.238281 -1.097656 13.03125 -0.207031 12.59375 0.65625 C 12.15625 1.53125 11.554688 2.226562 10.796875 2.75 C 10.046875 3.28125 9.207031 3.570312 8.28125 3.625 C 7.351562 3.6875 6.425781 3.484375 5.5 3.015625 Z M 6.4375 1.328125 C 7.1875 1.703125 7.925781 1.71875 8.65625 1.375 C 9.382812 1.039062 9.960938 0.445312 10.390625 -0.40625 C 10.816406 -1.257812 10.9375 -2.09375 10.75 -2.90625 C 10.570312 -3.726562 10.097656 -4.332031 9.328125 -4.71875 C 8.578125 -5.09375 7.832031 -5.109375 7.09375 -4.765625 C 6.351562 -4.421875 5.765625 -3.816406 5.328125 -2.953125 C 4.898438 -2.109375 4.785156 -1.28125 4.984375 -0.46875 C 5.179688 0.34375 5.664062 0.941406 6.4375 1.328125 Z M 6.4375 1.328125 "/></g></g></g><g fill="#000000" fill-opacity="1"><g transform="translate(236.485539, 129.876376)"><g><path d="M 5.9375 -8.3125 L 8.015625 -7.265625 L 7.203125 -5.609375 C 7.722656 -6.023438 8.34375 -6.273438 9.0625 -6.359375 C 9.78125 -6.441406 10.5 -6.304688 11.21875 -5.953125 C 12.144531 -5.484375 12.757812 -4.929688 13.0625 -4.296875 C 13.375 -3.660156 13.441406 -2.953125 13.265625 -2.171875 C 13.085938 -1.390625 12.71875 -0.441406 12.15625 0.671875 L 9.96875 5.015625 L 7.84375 3.953125 L 10 -0.328125 C 10.570312 -1.460938 10.875 -2.34375 10.90625 -2.96875 C 10.9375 -3.59375 10.601562 -4.082031 9.90625 -4.4375 C 9.519531 -4.625 9.0625 -4.695312 8.53125 -4.65625 C 8.007812 -4.625 7.492188 -4.445312 6.984375 -4.125 C 6.484375 -3.800781 6.078125 -3.332031 5.765625 -2.71875 L 3.515625 1.765625 L 1.390625 0.703125 Z M 5.9375 -8.3125 "/></g></g></g><g fill="#000000" fill-opacity="1"><g transform="translate(247.781856, 135.564847)"><g><path d="M 3.40625 7.625 C 2.726562 7.289062 2.113281 6.863281 1.5625 6.34375 C 1.007812 5.832031 0.632812 5.4375 0.4375 5.15625 L 1.90625 3.421875 C 2.488281 4.421875 3.289062 5.175781 4.3125 5.6875 C 5.09375 6.082031 5.847656 6.222656 6.578125 6.109375 C 7.304688 6.003906 7.957031 5.40625 8.53125 4.3125 L 9.328125 2.703125 C 8.804688 3.078125 8.148438 3.28125 7.359375 3.3125 C 6.566406 3.34375 5.800781 3.171875 5.0625 2.796875 C 4.269531 2.398438 3.644531 1.84375 3.1875 1.125 C 2.726562 0.40625 2.488281 -0.40625 2.46875 -1.3125 C 2.445312 -2.226562 2.675781 -3.164062 3.15625 -4.125 C 3.613281 -5.039062 4.203125 -5.765625 4.921875 -6.296875 C 5.640625 -6.828125 6.429688 -7.117188 7.296875 -7.171875 C 8.171875 -7.234375 9.054688 -7.039062 9.953125 -6.59375 C 10.472656 -6.320312 10.914062 -5.976562 11.28125 -5.5625 C 11.65625 -5.15625 11.9375 -4.738281 12.125 -4.3125 C 12.3125 -3.882812 12.382812 -3.515625 12.34375 -3.203125 L 13.15625 -4.6875 L 15.15625 -3.671875 L 10.640625 5.28125 C 9.867188 6.820312 8.878906 7.804688 7.671875 8.234375 C 6.472656 8.660156 5.050781 8.457031 3.40625 7.625 Z M 6.53125 1.296875 C 7.28125 1.671875 8.039062 1.726562 8.8125 1.46875 C 9.582031 1.207031 10.179688 0.660156 10.609375 -0.171875 L 10.671875 -0.3125 C 10.960938 -0.882812 11.101562 -1.445312 11.09375 -2 C 11.082031 -2.5625 10.9375 -3.070312 10.65625 -3.53125 C 10.375 -3.988281 9.988281 -4.335938 9.5 -4.578125 C 8.664062 -5.003906 7.878906 -5.054688 7.140625 -4.734375 C 6.398438 -4.421875 5.8125 -3.832031 5.375 -2.96875 C 4.9375 -2.09375 4.804688 -1.269531 4.984375 -0.5 C 5.171875 0.269531 5.6875 0.867188 6.53125 1.296875 Z M 6.53125 1.296875 "/></g></g></g></svg>